<?xml version="1.0" encoding="UTF-8"?>
<svg id="Layer_1" data-name="Layer 1" xmlns="http://www.w3.org/2000/svg" xmlns:xlink="http://www.w3.org/1999/xlink" viewBox="0 0 100 100">
  <defs>
    <style>
      .cls-1 {
        mask: url(#mask);
      }

      .cls-2, .cls-3, .cls-4 {
        stroke: #000;
        stroke-width: 2.4px;
      }

      .cls-5, .cls-6 {
        fill-rule: evenodd;
      }

      .cls-5, .cls-7 {
        fill: #fff;
      }

      .cls-8 {
        font-family: MyriadPro-Regular, 'Myriad Pro';
        font-size: 12px;
      }

      .cls-9 {
        letter-spacing: -.01em;
      }

      .cls-3, .cls-4 {
        fill: none;
      }

      .cls-4 {
        opacity: .7;
        stroke-linecap: square;
      }
    </style>
    <mask id="mask" x="17.52" y="27.4" width="55.37" height="52" maskUnits="userSpaceOnUse">
      <g id="path-2-inside-1_0_18" data-name="path-2-inside-1 0 18">
        <path class="cls-5" d="M69,46.6l-15.2,30.4h-8.8L21.4,29.8h15.2l12.8,25.6,4.4-8.8h15.2Z"/>
      </g>
    </mask>
  </defs>
  <rect class="cls-7" width="100" height="100" rx="37" ry="37"/>
  <g>
    <path class="cls-6" d="M69,46.6l-15.2,30.4h-8.8L21.4,29.8h15.2l12.8,25.6,4.4-8.8h15.2Z"/>
    <g class="cls-1">
      <path d="M69,46.6l2.15,1.07,1.74-3.47h-3.88v2.4ZM53.8,77v2.4h1.48l.66-1.33-2.15-1.07ZM45,77l-2.15,1.07.66,1.33h1.48v-2.4ZM21.4,29.8v-2.4h-3.88l1.74,3.47,2.15-1.07ZM36.6,29.8l2.15-1.07-.66-1.33h-1.48v2.4ZM49.4,55.4l-2.15,1.07,2.15,4.29,2.15-4.29-2.15-1.07ZM53.8,46.6v-2.4h-1.48l-.66,1.33,2.15,1.07ZM66.85,45.53l-15.2,30.4,4.29,2.15,15.2-30.4-4.29-2.15ZM53.8,74.6h-8.8v4.8h8.8v-4.8ZM47.15,75.93L23.55,28.73l-4.29,2.15,23.6,47.2,4.29-2.15ZM21.4,32.2h15.2v-4.8h-15.2v4.8ZM34.45,30.87l12.8,25.6,4.29-2.15-12.8-25.6-4.29,2.15ZM51.55,56.47l4.4-8.8-4.29-2.15-4.4,8.8,4.29,2.15ZM53.8,49h15.2v-4.8h-15.2v4.8Z"/>
    </g>
  </g>
  <g>
    <path class="cls-6" d="M71.8,41h-15.2l5.6-11.2h15.2l-5.6,11.2h0Z"/>
    <path class="cls-3" d="M62.94,31h12.52l-4.4,8.8h-12.52l4.4-8.8Z"/>
  </g>
  <path class="cls-2" d="M55.64,70.69l-2.57,5.11h-7.32L23.34,31h12.52l19.78,39.69Z"/>
  <path class="cls-4" d="M58.6,31h15.22"/>
  <path class="cls-4" d="M54.6,35h15.22"/>
  <path class="cls-4" d="M50.6,39.8h15.22"/>
  <text class="cls-8" transform="translate(58.6 28.6)"><tspan class="cls-9" x="0" y="0">A</tspan><tspan x="7.16" y="0">CS</tspan></text>
  <text class="cls-8" transform="translate(20.18 28.73)"><tspan x="0" y="0">MCP</tspan></text>
</svg>